<svg width="255" height="42" viewBox="0 0 255 42" fill="none" xmlns="http://www.w3.org/2000/svg">
<g id="Highlight">
<path id="Vector" fill-rule="evenodd" clip-rule="evenodd" d="M107.872 2.33334C107.961 2.37637 113.949 2.56735 121.162 2.75977C128.421 2.953 134.5 3.12492 134.773 3.12984C134.999 3.13394 135.635 3.12471 136.135 3.11303C136.635 3.08065 140.491 3.21241 144.754 3.37225C148.971 3.55196 155.095 3.76609 158.36 3.8872C161.581 3.98679 165.663 4.14334 167.431 4.2374C169.153 4.33063 172.236 4.48985 174.231 4.58801C176.227 4.66547 179.083 4.82059 180.578 4.90973C182.074 4.99886 183.707 5.04907 184.206 5.05808C186.114 5.05112 186.976 5.06669 187.61 5.09886C188.2 5.13021 188.199 5.15091 187.604 5.32653C187.192 5.44333 187.145 5.5253 187.462 5.53104C187.734 5.53596 188.145 5.46054 188.285 5.33882C188.424 5.2378 189.016 5.16566 189.605 5.19701C190.421 5.25316 190.6 5.35993 190.454 5.68862C190.326 5.94859 190.477 5.96512 190.907 5.73821C191.645 5.33738 193.098 5.32222 193.859 5.688C194.218 5.86013 194.535 5.86587 195.04 5.68861C195.453 5.53041 195.771 5.53615 195.949 5.66361C196.127 5.79107 196.58 5.81997 196.99 5.76525C197.491 5.69148 197.627 5.71464 197.396 5.87611C197.21 6.01771 197.298 6.12284 197.525 6.12694C197.797 6.13185 198.026 6.05316 198.029 5.94968C198.036 5.70132 199.896 5.75562 200.615 6.01709C200.929 6.14701 201.474 6.15685 201.976 6.06238C202.433 5.96709 202.979 5.89414 203.251 5.91975C206.015 6.13533 210.32 6.42016 211.273 6.43737C211.999 6.45049 212.542 6.52242 212.54 6.58451C212.536 6.70869 215.573 6.88779 218.07 6.91217C219.068 6.9302 219.338 7.01791 219.328 7.39045L219.315 7.84579L220.235 7.40684C220.971 7.06811 221.518 6.99516 222.423 7.11503C223.101 7.21012 223.824 7.34741 224.048 7.4343C224.227 7.54106 225.134 7.57815 225.952 7.53081C226.953 7.46606 227.496 7.51729 227.492 7.68286C227.488 7.80705 227.803 7.91627 228.166 7.92283C228.529 7.92938 228.85 7.83164 228.853 7.70745C228.858 7.54188 229.085 7.54598 229.533 7.74044C229.892 7.89188 230.068 8.10213 229.883 8.22303C229.651 8.38451 229.515 8.38205 229.429 8.21484C229.298 8.0468 228.89 8.01873 228.16 8.1298C227.522 8.22181 226.932 8.21115 226.798 8.1259C226.488 7.8718 222.494 7.82037 222.487 8.06873C222.485 8.15152 222.165 8.22857 221.802 8.22202C221.438 8.21546 221.124 8.10624 221.127 7.98206C221.131 7.85787 220.723 7.8091 220.222 7.88287C219.675 7.95583 218.584 8.01894 217.72 8.04476C216.494 8.06403 216.133 7.99538 216.14 7.74702C216.147 7.47796 216.057 7.45562 215.779 7.65767C215.362 7.94005 213.869 7.74743 213.335 7.36505C213.112 7.21607 212.976 7.21361 212.971 7.39989C212.966 7.58616 211.875 7.62858 208.654 7.54969C206.249 7.48555 204.482 7.3708 204.621 7.26977C204.899 7.06772 203.49 7.1044 202.622 7.31649C202.301 7.41424 202.076 7.36875 202.08 7.22387C202.084 7.07899 201.496 7.00625 200.495 7.0503C199.632 7.07613 198.907 7.04231 198.909 6.95953C198.911 6.87674 198.597 6.74682 198.19 6.67735C197.829 6.6087 197.602 6.6253 197.735 6.73125C197.868 6.83719 197.727 7.021 197.36 7.13863C196.856 7.31589 196.676 7.27121 196.459 6.89457C196.287 6.53944 196.108 6.47407 195.83 6.67612C195.507 6.85666 195.143 6.8708 194.24 6.70953C193.381 6.54908 193.018 6.54252 193.014 6.6874C193.011 6.81158 192.601 6.8456 192.104 6.75379C191.652 6.68351 190.517 6.68371 189.606 6.7915C188.377 6.91425 187.878 6.88454 187.385 6.66855C186.938 6.43269 186.665 6.42777 186.206 6.60585C185.747 6.80462 185.657 6.76159 185.892 6.47593C186.267 6.04785 185.633 6.01568 184.668 6.4124C183.795 6.79007 183.069 6.77696 182.037 6.32347C181.589 6.129 181.227 6.06035 181.224 6.18454C181.216 6.4536 173.82 6.2993 173.42 6.00217C173.197 5.87389 173.06 5.87143 173.056 6.037C173.052 6.18188 172.821 6.30197 172.549 6.29705C172.322 6.29295 172.234 6.20852 172.373 6.0868C172.513 5.96508 172.332 5.9411 171.967 5.99663C171.557 6.05135 171.235 6.19049 171.233 6.29398C171.23 6.37676 170.911 6.41242 170.505 6.32226C170.099 6.25279 169.598 6.30586 169.321 6.46652C168.997 6.66775 168.953 6.62554 169.19 6.27779C169.475 5.82737 168.845 5.62963 168.289 6.01303C168.104 6.13394 167.831 6.17041 167.606 6.10422C167.066 5.92881 158.263 5.74911 157.714 5.90485C157.44 5.96202 156.895 5.95218 156.489 5.86202C155.901 5.76858 155.764 5.80751 155.895 6.01694C156.025 6.20567 156.613 6.29911 157.613 6.27575C158.431 6.24911 159.246 6.32596 159.379 6.4319C159.512 6.53784 160.189 6.69502 160.867 6.7901C161.817 6.9108 162.136 6.87514 162.143 6.62678C162.149 6.41981 162.56 6.3237 163.376 6.35915L164.646 6.4028L163.507 6.54788C162.459 6.67391 162.459 6.6946 163.366 6.73169C163.91 6.76223 164.497 6.87637 164.63 6.98231C164.808 7.10977 165.216 7.13785 165.673 7.02186C166.084 6.94645 166.766 6.91735 167.127 6.986C167.714 7.10014 167.715 7.05874 167.179 6.75915C166.688 6.43968 166.689 6.39829 167.279 6.40894C167.688 6.41632 168.092 6.58927 168.222 6.7987C168.441 7.09255 168.847 7.16202 170.029 7.12124C170.847 7.0946 171.707 7.17226 171.84 7.29891C172.063 7.44788 172.471 7.45526 173.293 7.30444C174.023 7.17267 174.568 7.16181 174.746 7.28927C174.925 7.39603 177.282 7.52144 180.05 7.57144C182.818 7.62144 185.766 7.7575 186.624 7.89726C188.387 8.17759 190.437 7.94541 190.04 7.5034C189.954 7.35688 190.048 7.23433 190.275 7.23843C190.547 7.24335 190.725 7.39151 190.72 7.55708C190.714 7.76405 191.165 7.87574 192.164 7.87307C192.981 7.88782 203.099 8.11199 214.579 8.36076L235.541 8.82221L237.249 9.45357C238.147 9.80112 239.048 10.0866 239.184 10.089C239.32 10.0915 239.409 10.1552 239.316 10.2364C239.267 10.339 239.402 10.4036 239.674 10.4085C239.901 10.4126 240.125 10.5202 240.122 10.6444C240.119 10.7478 239.935 10.8067 239.71 10.7405C239.486 10.6536 239.391 10.7968 239.521 11.0063C239.652 11.2157 239.505 11.5858 239.226 11.8085C238.855 12.1124 238.851 12.2366 239.258 12.3061C239.665 12.3755 239.616 12.4989 239.064 12.7374C238.145 13.135 237.6 13.1665 238.064 12.8022C238.249 12.6813 238.204 12.6391 237.975 12.7178C236.919 13.1542 238.328 14.7327 239.825 14.7598C240.642 14.7745 241.074 15.5692 240.475 15.8897C240.198 16.0297 240.102 16.2143 240.282 16.3004C240.461 16.3657 240.636 16.6174 240.72 16.8467C240.843 17.3252 239.241 17.7932 238.752 17.4117C238.575 17.2428 238.348 17.2594 238.071 17.4408C237.469 17.844 237.555 18.032 238.326 18.0459C238.644 18.0516 239.139 18.1848 239.316 18.3537C239.493 18.5225 240.079 18.6781 240.577 18.7492C241.301 18.8244 241.478 18.9932 241.503 19.7185C241.49 20.1945 241.297 20.5844 241.025 20.5795C240.798 20.5754 240.751 20.6367 240.885 20.7013C241.333 20.9164 240.315 21.6021 239.589 21.589C238.228 21.5644 239.075 22.1181 240.435 22.1841C240.662 22.1882 240.977 22.2974 241.155 22.4248C241.509 22.7419 240.543 24.8365 239.854 25.1347C239.532 25.2739 237.396 25.3388 234.582 25.3294C231.949 25.3025 229.586 25.3634 229.312 25.4206C229.038 25.4985 228.812 25.4737 228.815 25.3495C228.818 25.2253 228.275 25.1741 227.502 25.2222C226.774 25.2919 226.049 25.2167 225.917 25.0901C225.738 24.9626 225.923 24.8624 226.331 24.8698C226.74 24.8771 226.924 24.7769 226.791 24.671C226.257 24.2679 225.299 24.437 224.692 25.0265C224.225 25.4944 223.951 25.5722 223.502 25.3985C223.097 25.2462 222.916 25.2429 222.912 25.3878C222.908 25.512 221.908 25.556 220.275 25.5058C218.87 25.439 217.326 25.4526 216.87 25.5065C216.049 25.6366 216.049 25.6573 216.767 25.9395C217.171 26.1124 217.981 26.3548 218.522 26.4888C219.244 26.6675 219.464 26.92 219.49 27.6038C219.522 28.0807 219.373 28.5335 219.191 28.5717C219.008 28.6305 218.955 28.8987 219.082 29.2116L219.294 29.7538L216.938 29.587C214.763 29.4235 214.581 29.4409 214.843 29.8184C215.19 30.3838 213.507 30.4983 212.523 29.9836C212.075 29.7477 211.989 29.5805 212.261 29.5854C212.579 29.5912 212.808 29.5125 212.811 29.409C212.814 29.3055 212.453 29.2368 211.998 29.27C211.588 29.3041 210.997 29.3348 210.68 29.3291C210.407 29.3448 209.813 29.4791 209.445 29.6588C209.031 29.817 208.712 29.8733 208.716 29.7491C208.722 29.5008 207.723 29.5241 207.307 29.7858C207.123 29.8653 206.445 29.7703 205.725 29.5502C205.05 29.3102 204.598 29.2606 204.776 29.3881C205.043 29.5793 204.859 29.6588 204.314 29.6696C203.86 29.6614 202.044 29.6494 200.319 29.6596C196.823 29.6586 195.548 29.8012 195.536 30.2358C195.525 30.6291 195.071 30.6002 194.358 30.1318C193.867 29.833 193.776 29.8313 193.769 30.0797C193.755 30.5971 194.742 31.0291 196.056 31.0943C197.643 31.185 197.417 31.1602 206.165 31.6703C216.001 32.2414 229.775 33.2563 231.311 33.5326C231.672 33.6012 233.122 33.7102 234.482 33.7969C237.654 33.9992 245.122 34.8381 248.059 35.326C249.596 35.5815 250.271 35.8008 250.129 35.9846C249.989 36.1477 250.123 36.2123 250.488 36.1568C250.853 36.1012 251.259 36.1707 251.438 36.2775C251.571 36.4041 251.887 36.4719 252.115 36.4139C252.756 36.2391 254.528 37.8035 253.977 38.042C253.701 38.1613 253.6 38.5322 253.727 38.8451C253.854 39.1994 253.756 39.4461 253.484 39.4412C253.257 39.4371 252.934 39.597 252.838 39.8023C252.696 40.0068 252.328 40.1865 251.964 40.2007C251.601 40.2148 249.872 40.3285 248.144 40.4423C246.37 40.5552 244.871 40.5902 244.828 40.4859C244.74 40.3808 244.149 40.4322 243.599 40.588C242.913 40.7826 242.413 40.815 242.235 40.6876C242.102 40.5609 241.741 40.4716 241.514 40.4675C241.242 40.4626 241.15 40.523 241.238 40.6074C241.371 40.7134 240.416 40.779 239.19 40.7982C237.419 40.8077 236.785 40.7341 236.339 40.4361C236.028 40.2234 235.577 40.1117 235.392 40.212C235.208 40.2915 235.297 40.3552 235.57 40.3601C235.887 40.3658 236.111 40.4941 236.107 40.639C236.101 40.846 234.828 40.9058 230.743 40.8527C227.839 40.821 224.933 40.8306 224.341 40.8821C222.84 40.9792 221.077 40.7196 221.402 40.4355C221.542 40.3138 221.359 40.3726 220.99 40.573C220.391 40.8935 219.709 40.9226 216.488 40.823C214.447 40.7655 212.362 40.6243 211.957 40.5134C211.506 40.4017 211.097 40.4151 210.912 40.536C210.634 40.7173 206.916 40.5673 206.105 40.3249C205.88 40.2587 205.698 40.2761 205.695 40.3796C205.693 40.4624 203.875 40.5331 201.651 40.4929C197.883 40.4663 197.567 40.4192 197.306 40.0003C197.044 39.6228 196.954 39.6005 196.763 39.9284C196.667 40.1337 196.21 40.2497 195.802 40.2216C194.76 40.12 194.271 39.7591 194.957 39.5851C196.146 39.2753 194.696 39.1663 193.416 39.4745C192.685 39.6683 191.774 39.7554 191.413 39.6868C190.961 39.6165 190.868 39.677 190.997 39.9278C191.128 40.1165 190.816 39.9245 190.328 39.5015C189.663 38.9304 189.169 38.7351 188.622 38.8288C188.166 38.9034 187.985 38.8587 188.216 38.7179C188.54 38.496 187.733 38.1294 187.274 38.3075C186.906 38.4872 188.203 39.194 188.929 39.2071C189.292 39.2136 189.649 39.4272 189.733 39.6772C189.816 39.9479 189.629 40.1516 189.357 40.1466C189.039 40.1409 188.907 39.9936 189.093 39.8313C189.282 39.5862 189.191 39.5638 188.506 39.7171C187.867 39.8505 187.55 39.8241 187.419 39.6354C187.288 39.4466 187.061 39.4425 186.603 39.5999C185.732 39.8741 182.826 39.9044 183.242 39.622C183.381 39.521 183.293 39.4159 182.976 39.4102C182.613 39.4036 182.615 39.3208 183.076 39.0806C183.628 38.8007 183.719 38.8231 184.069 39.2643C184.334 39.5589 184.558 39.6458 184.699 39.4827C184.84 39.2989 185.113 39.2831 185.472 39.4345C185.876 39.6075 186.059 39.5694 186.066 39.3003C186.078 38.8864 184.374 38.1101 184.004 38.3519C183.865 38.453 183.362 38.5681 182.906 38.6427C182.496 38.6974 182.127 38.8979 182.122 39.0841C182.118 39.2497 181.887 39.3905 181.66 39.3864C181.388 39.3815 181.211 39.1919 181.218 38.9643C181.225 38.6952 181.001 38.5876 180.545 38.6622C180.089 38.7368 179.995 38.8593 180.262 39.0298C180.53 39.2003 180.347 39.2591 179.575 39.2659C178.984 39.2759 178.487 39.1841 178.49 39.0806C178.494 38.9565 178.175 38.9714 177.808 39.1098C177.258 39.3069 177.21 39.4095 177.615 39.5411C177.93 39.6296 177.339 39.6604 176.295 39.6415C174.663 39.5706 174.438 39.5044 174.674 39.1774C174.909 38.871 174.82 38.8073 174.227 38.9001C173.817 38.9755 173.5 38.9284 173.503 38.8249C173.507 38.7007 173.69 38.6212 173.963 38.6261C174.19 38.6302 174.421 38.4895 174.425 38.3239C174.438 37.8479 173.891 37.9415 172.372 38.7009C171.128 39.3204 169.847 39.67 170.496 39.2055C170.867 38.943 169.465 38.7313 168.598 38.902C167.548 39.1108 165.962 38.9993 165.108 38.6733C163.896 38.1958 164.899 38.0483 166.475 38.4909C167.737 38.845 168.054 38.8714 168.061 38.6231C168.068 38.3747 168.294 38.3788 169.288 38.5624C170.689 38.8155 171.69 38.73 171.701 38.3161C171.707 38.1091 171.346 38.0405 170.572 38.1093C169.936 38.1393 169.438 38.0888 169.441 37.9647C169.444 37.8405 168.857 37.747 168.085 37.7538C167.358 37.7614 166.721 37.812 166.719 37.8741C166.715 38.019 164.357 37.9143 163.41 37.7108C162.958 37.6198 162.322 37.6497 161.909 37.8079C161.267 38.0241 161.086 38.0208 160.64 37.7022C160.194 37.4456 159.922 37.42 159.554 37.579C159.141 37.7579 158.732 37.7505 157.921 37.5495C157.199 37.3915 156.655 37.361 156.515 37.4827C156.33 37.6036 156.418 37.688 156.645 37.6921C157.145 37.7012 157.027 38.6516 156.522 38.8702C156.293 38.9489 156.248 38.9274 156.387 38.8057C156.573 38.6641 156.305 38.5143 155.762 38.4423C155.083 38.3473 154.901 38.3854 155.077 38.5956C155.252 38.8266 155.07 38.844 154.302 38.7059C153.759 38.6133 153.034 38.5587 152.67 38.6143C152.123 38.6872 152.123 38.6665 152.676 38.3866C153.044 38.2276 153.363 38.1712 153.451 38.2764C153.539 38.3815 153.809 38.4692 154.036 38.4733C154.308 38.4782 154.356 38.3755 154.179 38.2274C154.001 38.0999 154.047 38.0594 154.363 38.1479C155.128 38.3688 155.411 37.9805 154.743 37.5335C154.163 37.171 153.981 37.1677 152.93 37.418C152.154 37.5696 151.877 37.7509 152.145 37.88C152.414 38.0091 152.364 38.1946 151.951 38.3528C151.169 38.6907 149 38.3409 149.013 37.8856C149.017 37.7407 148.705 37.528 148.343 37.4593C147.937 37.3899 147.663 37.4264 147.704 37.5928C147.826 38.0919 147.637 38.3577 147.138 38.3487C146.911 38.3446 146.824 38.2188 147.01 38.0772C147.194 37.9563 146.967 37.9729 146.463 38.1501C146.004 38.3075 145.32 38.4194 145.003 38.393C144.731 38.3674 144.142 38.336 143.78 38.3088C143.417 38.3022 143.103 38.1309 143.108 37.9653C143.12 37.5514 142.393 37.5589 142.018 37.9663C141.783 38.252 141.693 38.2504 141.02 37.9483C140.259 37.5618 139.263 37.461 139.708 37.8004C139.841 37.9063 139.566 38.0049 139.066 37.9958C138.567 37.9868 138.07 37.895 137.937 37.8098C137.715 37.6194 135.809 37.585 135.123 37.759C134.895 37.817 133.531 37.8545 132.079 37.8489C130.218 37.836 129.403 37.7385 129.227 37.5282C129.096 37.3602 128.644 37.2692 128.235 37.3032C127.825 37.3372 126.828 37.2778 126.105 37.1612C125.231 37.0212 125.158 36.9439 125.884 36.9295C126.52 36.9202 127.474 36.9167 128.019 36.9059C128.745 36.919 129.066 36.8006 129.073 36.5522C129.079 36.3245 128.766 36.1532 128.358 36.1458C127.995 36.1393 127.811 36.2188 127.944 36.3454C128.255 36.5788 127.119 36.6204 126.671 36.3846C126.403 36.2555 122.683 36.1469 121.591 36.2307C120.726 36.2979 120.048 36.2028 119.376 35.8594C118.704 35.5573 118.613 35.5557 118.378 35.8413C118.051 36.1874 117.004 36.2721 116.74 35.9567C116.653 35.8516 116.244 35.8649 115.785 36.0223C115.053 36.2368 115.051 36.2989 115.678 36.6002C116.036 36.793 116.348 37.0057 116.345 37.1092C116.297 37.1911 115.849 36.9967 115.268 36.6549C114.374 36.1418 114.103 36.0954 113.281 36.267C112.505 36.4393 112.368 36.4368 112.511 36.2116C112.697 36.0493 112.382 35.9401 111.748 35.9079C111.158 35.8766 110.93 35.9139 111.155 36.0008C112.099 36.3284 111.684 36.5694 110.186 36.5631C109.187 36.545 108.6 36.4309 108.425 36.2207C108.295 35.9905 107.572 35.8532 106.303 35.7889C105.214 35.7485 104.265 35.6071 104.222 35.5028C104.048 35.2512 102.778 35.2075 102.771 35.4352C102.764 35.6836 104.975 36.1791 105.478 36.0432C105.707 35.9852 106.111 36.1375 106.377 36.37C106.775 36.75 106.729 36.7905 105.685 36.7717C105.004 36.7594 104.598 36.6692 104.783 36.569C104.922 36.4473 104.655 36.2561 104.16 36.1229C103.574 35.9674 103.165 35.96 102.98 36.1016C102.841 36.2026 102.475 36.2996 102.202 36.2946C101.885 36.2889 101.933 36.1862 102.256 36.0057C102.855 35.6852 102.184 35.3418 101.406 35.5555C101.131 35.6334 100.997 35.5688 101.046 35.4247C101.19 35.1581 97.8814 34.9534 97.5108 35.2159C97.3718 35.317 96.8284 35.2657 96.2879 35.111C94.6658 34.6676 93.6663 34.6909 93.9713 35.152C94.1883 35.508 94.097 35.527 93.2854 35.326C92.7449 35.1713 92.3376 35.1225 92.3353 35.2053C92.3336 35.2674 92.0619 35.2418 91.7477 35.1118C91.3887 34.9604 91.0251 34.9745 90.6109 35.1741C90.0589 35.4334 90.2375 35.5401 91.0561 35.4928C91.283 35.4969 91.4156 35.6235 91.411 35.7891C91.4006 36.1617 90.2196 36.1817 89.9124 35.8035C89.7803 35.6561 89.643 35.6951 89.6372 35.902C89.5808 36.2944 88.7623 36.3418 86.9983 36.1028L85.9581 35.9598L86.8818 35.3967C88.083 34.6522 88.0411 34.5272 86.5844 34.6666C85.4918 34.7711 85.447 34.7496 86.0462 34.4291C86.6453 34.1086 86.5999 34.1077 85.5487 34.3579C84.7261 34.5502 82.5456 34.5936 77.5994 34.5043C70.9287 34.3838 70.7926 34.3813 70.2795 34.869L69.7217 35.3352L69.4168 34.8742C69.2422 34.6225 69.0193 34.4735 68.8815 34.5332C68.6982 34.592 68.3381 34.4819 67.9808 34.2684C67.623 34.0756 67.488 34.0317 67.6649 34.2006C67.9308 34.4332 67.7935 34.4721 67.1169 34.3149C66.6654 34.224 65.805 34.1463 65.2604 34.1365C64.7153 34.1473 64.1277 34.0539 63.9944 33.9479C63.5499 33.6086 62.8669 33.6791 63.1293 34.0358C63.3062 34.2047 63.1661 34.3471 62.8938 34.3422C62.6215 34.3373 62.3969 34.2504 62.3998 34.1469C62.4027 34.0434 61.9053 33.9723 61.2688 34.0022C60.6329 34.0115 60.1355 33.9404 60.139 33.8162C60.1418 33.7127 59.823 33.7483 59.3652 33.885C58.8603 34.083 58.5874 34.0988 58.4559 33.9307C58.3692 33.7842 57.9171 33.7139 57.4616 33.7678C57.0521 33.8018 56.4196 33.6869 56.1066 33.5156C55.7488 33.3227 55.299 33.1696 55.0268 33.1647C54.7545 33.1598 54.9325 33.2873 55.3817 33.461C56.191 33.7449 56.1904 33.7656 55.1485 33.6846C54.5143 33.6317 53.6096 33.5119 53.1581 33.4209C52.5257 33.3059 52.389 33.3242 52.6113 33.4938C53.1001 33.8754 51.4228 33.783 50.2091 33.3469C49.579 33.1492 49.2625 33.102 49.4406 33.2295C49.6628 33.3992 49.2527 33.4539 48.1188 33.4127C47.1664 33.3748 46.3083 33.2143 46.0866 33.024C45.8649 32.8336 45.6391 32.7881 45.6357 32.9123C45.6316 33.0572 44.7671 33.1244 43.5425 33.0815C40.5027 33.0059 42.1484 32.6008 45.5082 32.5994C46.9609 32.6049 48.8697 32.5358 49.7348 32.4479C50.5998 32.36 53.3708 32.3065 55.8667 32.3516C58.3631 32.376 61.1794 32.3233 62.0899 32.2362C63.4099 32.1151 64.1354 32.1489 65.1722 32.4161C66.2992 32.7057 66.4807 32.709 66.2613 32.4358C66.0407 32.2041 66.3142 32.1676 67.5371 32.2725C69.3488 32.4295 69.0305 32.4444 74.0285 32.3069C76.2544 32.2643 78.7508 32.2887 79.5653 32.3862C80.3798 32.4837 81.1059 32.4969 81.2438 32.4372C81.5655 32.2981 84.6058 32.353 84.9194 32.5036C85.0538 32.5682 85.9166 32.563 86.8713 32.5182C87.7812 32.4518 89.6417 32.4854 90.956 32.5712C92.2696 32.6778 93.4041 32.6983 93.5414 32.6594C93.7252 32.5798 99.4895 32.6425 100.349 32.7409C100.576 32.7657 100.984 32.7731 101.257 32.7573C101.666 32.7233 105.069 32.8261 110.784 33.0329C113.097 33.1161 127.884 33.5903 139.361 33.9425C142.854 34.047 145.712 34.1401 145.711 34.1607C145.709 34.2435 157.866 34.6081 165.353 34.764C169.618 34.8618 173.247 34.9894 173.381 35.0747C173.469 35.1591 175.147 35.2308 177.054 35.2238C179.597 35.2076 180.684 35.2894 180.906 35.4798C181.129 35.6288 181.31 35.6527 181.313 35.5286C181.317 35.4044 182.498 35.3636 184.585 35.4427C186.399 35.4962 191.208 35.6244 195.292 35.6982C200.965 35.8007 202.597 35.8923 202.319 36.0943C202.086 36.2765 202.177 36.2781 202.681 36.1216C203.047 36.0039 206.045 35.9753 210.355 36.0738C214.212 36.1642 217.798 36.1668 218.3 36.0931C218.984 35.9812 218.758 35.9357 217.398 35.8904C216.036 35.8658 215.766 35.7988 216.269 35.6629C216.681 35.5461 216.728 35.4642 216.411 35.4584C216.138 35.4535 215.728 35.5289 215.588 35.6506C215.449 35.7517 214.811 35.8437 214.176 35.8322C213.359 35.8175 213.09 35.6884 213.054 35.3357C213.067 34.901 213.021 34.9002 212.647 35.2869C212.367 35.5511 212.23 35.59 212.236 35.383C212.198 35.1131 212.107 35.1115 211.783 35.3541C211.413 35.5959 210.958 35.6084 209.647 35.4191C207.928 35.2017 207.168 34.7738 208.216 34.6271C208.535 34.5914 208.445 34.5691 207.991 34.5816C207.081 34.648 206.953 34.3351 207.775 34.1842C208.094 34.1279 207.55 34.0974 206.551 34.1C205.098 34.1152 204.687 34.1906 204.587 34.5408C204.487 34.8703 204.212 34.9482 203.533 34.8738C202.538 34.7316 202.452 34.5644 203.233 34.2265C203.923 33.9283 203.519 33.7347 202.562 33.883C202.152 33.9377 201.872 34.1812 201.911 34.4304C201.948 34.7416 201.763 34.8625 201.311 34.7922C200.949 34.7236 200.179 34.6683 199.634 34.6584C199 34.6263 198.551 34.4525 198.378 34.1388C198.249 33.8879 197.846 33.6736 197.528 33.6679C197.165 33.6613 196.579 33.5058 196.221 33.3336C195.638 33.0746 195.546 33.1144 195.258 33.689L194.921 34.3455L194.391 33.8183C193.993 33.4383 193.453 33.2836 192.591 33.2681C191.909 33.2765 191.367 33.2045 191.369 33.1217C191.371 33.039 190.918 33.0101 190.417 33.0631C189.734 33.1336 189.192 33.041 188.836 32.7861C188.479 32.5519 188.209 32.4849 188.205 32.609C188.202 32.7332 187.879 32.8931 187.515 32.9486C187.058 33.0232 186.833 32.957 186.93 32.7517C187.025 32.6084 186.847 32.481 186.619 32.4976C186.346 32.5133 186.208 32.5937 186.296 32.6781C186.426 32.9082 186.018 32.8802 185.027 32.6138C184.035 32.3474 181.849 32.6185 181.838 32.991C181.834 33.1566 182.015 33.1806 182.428 33.0017C182.887 32.8443 183.067 32.8683 183.062 33.0752C183.057 33.2408 182.643 33.4197 182.189 33.4529C181.414 33.5425 181.192 33.3728 181.39 32.7759C181.441 32.5904 181.216 32.5242 180.759 32.5988C180.395 32.6543 179.942 32.6254 179.763 32.498C179.631 32.3713 178.815 32.3152 177.952 32.341C177.088 32.3875 176.364 32.3123 176.231 32.165C176.099 32.0177 175.781 32.0533 175.366 32.2736C174.674 32.6545 173.899 32.7648 174.363 32.4211C174.502 32.2994 174.414 32.215 174.142 32.2101C173.869 32.2052 173.683 32.3675 173.769 32.5554C173.852 32.8261 173.486 32.923 172.169 32.9406C171.124 32.9632 170.535 32.9111 170.675 32.7894C170.859 32.6892 170.773 32.522 170.503 32.455C170.233 32.3673 170.096 32.3855 170.139 32.4898C170.227 32.5742 170.043 32.6744 169.815 32.7117C169.542 32.7275 169.364 32.5793 169.325 32.3509C169.286 32.1431 169.157 31.8716 168.98 31.7234C168.535 31.384 167.802 31.6193 168.109 31.9976C168.24 32.1863 168.055 32.3072 167.601 32.299C167.193 32.2916 166.879 32.141 166.885 31.9548C166.889 31.7892 166.665 31.7023 166.39 31.7802C166.116 31.8373 165.709 31.7886 165.531 31.6404C165.308 31.4914 164.586 31.3334 163.862 31.2789C162.82 31.198 162.545 31.2759 162.49 31.6062C162.332 32.3902 161.472 32.3126 160.86 31.4732C160.817 31.3689 160.184 31.2746 159.503 31.2623C158.823 31.25 158.416 31.1806 158.555 31.0795C158.694 30.9785 158.56 30.8933 158.288 30.8884C157.97 30.8826 157.876 31.0259 158.007 31.2146C158.137 31.4033 158.269 31.5714 158.268 31.6128C158.267 31.6541 158.766 31.6632 159.403 31.6125C160.221 31.5652 160.447 31.6107 160.259 31.8351C159.837 32.3244 158.382 32.4017 156.849 32.022C155.902 31.7978 155.177 31.7226 154.674 31.8585C154.081 31.972 153.765 31.9042 153.365 31.607C152.92 31.2677 152.967 31.2064 153.512 31.2162C153.875 31.2228 154.195 31.1457 154.198 31.0423C154.205 30.7732 152.94 30.564 152.615 30.8066C152.431 30.9068 152.157 30.9433 151.887 30.8763C151.482 30.7447 144.864 30.356 142.958 30.3423C142.412 30.3531 141.961 30.2621 141.963 30.1793C141.972 29.8482 140.113 29.7732 138.788 30.0599C137.099 30.4021 137.098 30.4435 138.64 30.4921C139.366 30.5052 140.408 30.5861 141.042 30.639C141.677 30.6919 142.404 30.6636 142.679 30.565C142.999 30.4673 143.316 30.5144 143.447 30.7031C143.623 30.9134 143.211 31.0095 142.03 31.0503C141.12 31.096 140.305 31.0398 140.216 30.9554C140.128 30.871 139.811 30.8238 139.447 30.8794C139.127 30.9357 138.403 30.8605 137.862 30.7265C137.186 30.5486 136.732 30.5404 136.319 30.6986C135.861 30.856 135.634 30.8312 135.414 30.5787C135.283 30.4107 135.378 30.2675 135.604 30.2716C135.877 30.2765 136.061 30.197 136.063 30.0935C136.066 29.99 135.253 29.8511 134.21 29.7908C132.579 29.6992 132.305 29.7357 131.93 30.1638C131.696 30.4287 131.283 30.5663 131.058 30.5001C130.698 30.39 130.747 30.2667 131.115 30.0662C131.806 29.706 131.359 29.4701 129.907 29.4439C128.773 29.4027 128.45 29.6039 129.26 29.8464C129.485 29.9126 129.707 30.1029 129.658 30.2263C129.653 30.4126 129.562 30.4109 129.431 30.2222C129.299 30.0749 128.892 30.0261 128.482 30.0808C128.026 30.1554 127.845 30.1107 128.076 29.9699C128.493 29.6876 127.591 29.4435 125.642 29.3255C124.781 29.2892 123.195 29.1777 122.153 29.0968C121.11 29.0365 120.111 29.0599 119.972 29.1609C119.833 29.2619 119.423 29.296 119.063 29.2066C118.566 29.1148 118.473 29.1753 118.648 29.4269C118.999 29.8681 118.091 29.8517 117.559 29.4072C117.204 29.0902 117.114 29.0886 116.878 29.3949C116.503 29.8023 115.641 29.8074 115.652 29.3935C115.657 29.2279 115.842 29.0863 116.115 29.0913C116.342 29.0953 116.571 28.996 116.575 28.8718C116.578 28.7683 116.352 28.7228 116.123 28.7808C115.849 28.838 115.67 28.7726 115.674 28.6277C115.68 28.4001 115.589 28.3984 115.265 28.6203C115.079 28.7826 114.487 28.8548 114.034 28.8052C113.4 28.7523 113.171 28.831 113.253 29.1431C113.288 29.5165 113.243 29.5156 112.752 29.1962C112.351 28.9404 112.034 28.8933 111.44 29.0275C110.937 29.1634 110.665 29.1585 110.669 29.0136C110.672 28.9101 110.264 28.8613 109.763 28.9144C109.08 28.9849 108.9 28.9402 109.088 28.7158C109.322 28.4716 108.96 28.4029 107.327 28.3734C105.013 28.3316 105.058 28.3117 105.721 28.9656C105.986 29.2465 105.924 29.2799 105.537 29.0658C105.18 28.8523 104.728 28.7613 104.544 28.8408C104.315 28.9195 104.319 28.7954 104.506 28.5917C104.741 28.2853 104.697 28.2431 104.193 28.4204C103.826 28.5587 103.371 28.5712 103.192 28.4851C102.968 28.3982 102.966 28.4603 103.144 28.5878C103.543 28.9263 101.772 28.9357 101.372 28.6179C101.24 28.4913 101.333 28.4101 101.65 28.4159C102.013 28.4224 102.016 28.3396 101.569 28.0831C101.078 27.7843 100.987 27.7826 100.616 28.0658C100.384 28.248 99.7899 28.3822 99.3361 28.374C98.837 28.365 98.4262 28.4404 98.4228 28.5646C98.4199 28.6681 98.1901 28.7675 97.9632 28.7634C97.6456 28.7577 97.649 28.6335 97.9748 28.3495C98.2534 28.1267 98.3953 27.9222 98.3499 27.9214C98.034 27.8536 95.3147 27.6802 92.7758 27.5515C91.0526 27.479 89.9164 27.5206 89.7309 27.6622C89.1759 28.0249 89.3074 28.1929 90.037 28.0818C90.4023 28.0056 90.5879 27.864 90.4098 27.7366C90.2317 27.6091 90.3685 27.5909 90.7734 27.7224C91.5833 27.9855 93.58 28.0216 93.9499 27.7798C94.1343 27.6796 94.4491 27.7888 94.7156 28.0007C95.1136 28.3806 94.9769 28.3988 92.164 28.3273C89.3965 28.2566 89.1253 28.2103 89.2265 27.8394C89.3271 27.4892 88.921 27.399 86.567 27.1495C85.073 26.9982 83.6226 26.9099 83.394 26.9679C83.1654 27.0259 82.7127 26.9763 82.3537 26.8249C81.9046 26.6511 81.4962 26.6437 80.8109 26.797C80.2629 26.9113 79.8539 26.9247 79.8573 26.8005C79.8602 26.697 78.9113 26.5349 77.6884 26.43C76.5109 26.3259 75.3351 26.1597 75.0657 26.0513C74.7509 25.9421 74.2041 26.015 73.5153 26.2925C72.6887 26.6296 72.3245 26.6644 71.649 26.4659C71.1993 26.3128 70.4307 26.1954 70.0223 26.188C69.5231 26.179 69.8362 26.3503 70.7828 26.5952C71.8643 26.8839 72.5887 26.9591 73.1367 26.8448C73.6853 26.7097 74.274 26.7618 74.9937 27.0025C75.579 27.1788 76.212 27.273 76.4412 27.1943C76.6256 27.0941 76.6699 27.1364 76.4843 27.278C76.3447 27.3997 76.5222 27.5478 76.9742 27.6181C77.6526 27.7132 77.652 27.7339 76.8346 27.7398C76.3355 27.7308 75.6577 27.615 75.3441 27.4644C74.8507 27.2484 74.7599 27.2468 75.0264 27.4587C75.4698 27.8394 74.9264 27.7882 74.0746 27.4001C73.537 27.1419 73.2653 27.1163 72.761 27.2935C72.2566 27.4708 71.8941 27.4435 71.2663 27.163C70.7729 26.947 70.0504 26.8097 69.55 26.8421C69.0951 26.8753 68.7798 26.7868 68.8297 26.622C69.0211 26.2734 68.2031 26.3001 67.8745 26.6876C67.6872 26.8913 67.7762 26.955 68.1421 26.8581C68.4621 26.781 68.5069 26.8025 68.3208 26.9648C68.0433 27.1462 67.6809 27.1189 66.8704 26.8765C65.6107 26.4603 64.5676 26.4208 64.2861 26.747C64.1459 26.8894 64.0133 26.7628 64.0225 26.4316C63.9869 26.079 63.7658 25.8679 63.312 25.8597C62.949 25.8532 62.6336 25.7646 62.6371 25.6404C62.64 25.537 61.4171 25.432 59.7823 25.4439C57.6937 25.4476 56.9653 25.5173 56.959 25.745C56.9544 25.9105 56.5867 26.0696 56.1772 26.1036C55.5401 26.1542 55.4517 26.0698 55.6861 25.8048C55.9205 25.5398 55.8315 25.4761 55.2387 25.5689C54.7372 25.6427 54.4666 25.5757 54.4712 25.4101C54.4764 25.2239 54.1151 25.1552 53.342 25.2034C52.3861 25.2896 52.3396 25.3302 52.8766 25.6091C53.2351 25.7812 53.5487 25.9319 53.5475 25.9732C53.5469 25.9939 52.0041 25.9661 50.0987 25.911C47.6942 25.8468 46.4713 25.7419 46.0239 25.506C45.3967 25.2048 45.4432 25.1642 46.5346 25.1011C47.3083 25.0323 47.8058 25.1034 47.9821 25.2929C48.2882 25.7126 50.3768 25.7089 50.3883 25.295C50.3929 25.1294 50.5768 25.0499 50.8473 25.1169C51.0725 25.1831 51.3005 25.1458 51.3034 25.0423C51.3097 24.8146 50.8123 24.7435 50.038 24.8331C49.8553 24.8712 49.7623 24.9523 49.8507 25.0368C49.9799 25.2876 48.6651 25.2224 48.3544 24.9683C47.8214 24.5445 45.5472 24.6898 44.716 25.1925C44.0238 25.5942 43.7044 25.6505 42.9835 25.4511C42.5326 25.3394 41.7175 25.2626 41.262 25.3165C40.7157 25.3687 40.3998 25.3009 40.4044 25.1353C40.4108 24.9077 40.1391 24.8821 39.1361 25.0296C37.9511 25.1946 35.4564 25.1081 33.3753 24.8427C32.8779 24.7716 31.7906 24.6899 30.9737 24.6751C30.1575 24.6397 29.5699 24.5462 29.7089 24.4452C29.8474 24.3649 29.4855 24.3169 28.9398 24.3485C27.3934 24.4448 26.6312 24.0997 27.2356 23.5929C27.7004 23.2079 27.6119 23.1234 26.3948 22.8116C25.6285 22.6114 24.814 22.5138 24.6308 22.5726C24.4021 22.6306 24.0868 22.5421 23.9995 22.4163C23.8238 22.206 23.733 22.2044 23.7272 22.4114C23.6772 22.5761 23.4492 22.6134 23.0891 22.5034C22.8191 22.4157 21.9138 22.3165 21.1883 22.2827C20.4169 22.2687 18.831 22.1573 17.6534 22.0532C15.9325 21.8978 15.5269 21.787 15.7154 21.5419C15.9027 21.3382 15.8137 21.2745 15.4489 21.33C15.1295 21.3863 14.5367 21.4792 14.126 21.5546C13.7158 21.6093 13.0823 21.5357 12.7692 21.3644C12.4103 21.213 11.4602 21.0923 10.6428 21.0982C9.50719 21.1191 9.19125 21.0513 9.37855 20.8476C9.61294 20.5827 8.93341 20.529 8.01833 20.7816C7.69837 20.8587 7.3842 20.7288 7.255 20.4779C7.08214 20.1642 7.17521 20.0831 7.62668 20.174C8.03336 20.2435 8.17121 20.1839 8.04027 19.9952C7.77666 19.6798 5.12359 18.7621 3.22865 18.3345C2.55202 18.1773 2.01266 17.9812 2.01497 17.8984C2.01785 17.7949 1.65541 17.7677 1.19989 17.8216C0.516315 17.9128 0.516877 17.8921 1.15911 17.6552C1.52619 17.5168 1.98806 17.2353 2.17535 17.0316C2.36264 16.8279 2.72855 16.731 2.95373 16.7972C3.22368 16.8849 3.67804 16.8724 3.99858 16.7746C4.5489 16.5775 5.09286 16.608 12.2569 16.9445C14.2524 17.022 18.3336 17.1992 21.3269 17.3154C24.3202 17.4316 27.993 17.6015 29.4887 17.6906C30.9845 17.7797 34.3402 17.9232 36.971 18.0121C43.0948 18.2055 55.7032 18.6818 60.1014 18.8854C61.9608 18.9604 64.4555 19.0469 65.6807 19.0691C66.906 19.0912 68.2196 19.1977 68.67 19.3301C69.2558 19.4857 69.6642 19.493 69.8498 19.3514C69.9888 19.2504 70.7178 19.16 71.4438 19.1731C72.1699 19.1863 72.8931 19.3029 73.0263 19.4088C73.2038 19.557 73.5668 19.5635 74.1608 19.4293C75.2114 19.1998 76.937 19.1895 76.1132 19.4231C75.7932 19.5002 77.3344 19.5902 79.5132 19.6088C81.6919 19.6274 83.7322 19.7264 84.001 19.8555C84.4054 20.0078 84.8144 19.9944 85.3641 19.818C86.0064 19.5811 86.0971 19.5828 85.7271 19.8246C85.4491 20.0266 85.5387 20.0697 85.9959 19.9537C86.7284 19.7391 88.1351 19.7645 89.2632 20.0127C89.7147 20.1037 90.1679 20.1326 90.3058 20.0729C90.489 20.0141 91.0778 20.0662 91.7102 20.1811C92.3426 20.2961 93.0227 20.3291 93.2967 20.2719C93.9372 20.0971 98.7497 20.1012 99.3356 20.2567C99.8761 20.4114 104.96 20.4412 105.509 20.2854C105.738 20.2274 105.918 20.2928 105.915 20.3963C105.911 20.5205 106.135 20.628 106.408 20.633C106.635 20.6371 106.773 20.5567 106.594 20.45C106.462 20.3233 107.416 20.2991 108.957 20.3891C110.407 20.4774 113.31 20.592 115.442 20.6512C117.937 20.717 119.522 20.8698 119.926 21.0428C120.419 21.2795 120.646 21.2836 120.878 21.0807C121.109 20.9606 121.564 20.9067 122.016 20.977C122.422 21.0672 122.65 21.0506 122.472 20.9231C122.294 20.7956 122.795 20.7219 123.567 20.7358C124.293 20.7489 125.021 20.6793 125.16 20.5989C125.253 20.5178 124.664 20.4657 123.8 20.4915C122.937 20.5174 122.258 20.4637 122.261 20.3395C122.265 20.2153 122.674 20.1813 123.172 20.2524C124.483 20.4417 124.365 19.7977 122.969 19.3583C122.069 19.0729 121.707 19.0456 121.157 19.2428C120.698 19.4001 120.471 19.4167 120.475 19.2719C120.478 19.1477 120.162 19.0798 119.798 19.1354C119.432 19.2116 118.843 19.1596 118.529 19.0296C118.215 18.8997 117.217 18.861 116.171 18.9249C114.807 19.0038 114.35 19.1198 114.387 19.4104C114.427 19.5975 114.333 19.72 114.199 19.6555C114.064 19.5909 113.654 19.6456 113.287 19.784C112.737 19.9604 112.556 19.9571 112.425 19.7477C112.206 19.4745 110.938 19.3688 110.93 19.6379C110.921 19.969 108.519 19.8221 107.441 19.4092C106.812 19.17 106.499 18.978 106.772 18.9829C106.998 18.987 107.32 18.8479 107.46 18.7055C107.648 18.4811 107.513 18.4372 107.012 18.511C106.51 18.5848 106.375 18.5409 106.606 18.4001C106.838 18.2387 106.613 18.1518 106.023 18.1411C105.479 18.1313 105.023 18.2059 105.019 18.3301C104.971 18.4327 104.875 18.6174 104.826 18.7407C104.778 18.8434 104.682 19.0073 104.635 19.0893C104.585 19.2334 102.796 18.2899 102.801 18.0829C102.804 18.0001 102.488 17.9323 102.125 17.9258C101.762 17.9192 101.623 18.0202 101.756 18.1262C101.934 18.2536 101.751 18.2917 101.3 18.2008C100.893 18.1313 100.439 18.1438 100.3 18.2448C100.115 18.3657 99.661 18.3575 99.1205 18.2028C98.6242 18.0903 97.9906 18.0167 97.6712 18.0731C97.2611 18.1278 97.2599 18.1692 97.6683 18.1766C97.9854 18.203 98.2554 18.2907 98.253 18.3735C98.245 18.6633 95.0742 18.3989 94.358 18.034C93.6854 17.7319 93.5946 17.7303 93.0414 18.0309C92.6249 18.3133 92.1706 18.3258 90.7225 18.1547C89.7719 18.0547 88.6851 17.9522 88.3668 17.9672C87.9125 17.9797 87.9142 17.9176 88.329 17.6973C88.7437 17.477 88.7455 17.4149 88.3371 17.4075C88.0194 17.4018 87.9315 17.2967 88.0706 17.1956C88.2102 17.0739 88.2125 16.9911 87.9862 16.9663C87.8046 16.9631 86.8528 16.9044 85.901 16.8458C84.9492 16.7872 83.6809 16.6815 83.002 16.6071C82.0071 16.4649 81.9158 16.484 82.4982 16.7637C82.9468 16.9581 83.5804 17.0317 84.2174 16.9811C85.0371 16.8924 85.1721 16.9362 84.8935 17.159C84.5695 17.3809 84.6143 17.4024 85.1646 17.2053C85.623 17.0479 86.032 17.0346 86.4811 17.2083C87.0211 17.3838 87.0205 17.4045 86.3881 17.2895C85.936 17.2192 85.4805 17.2731 85.2961 17.3733C85.1565 17.495 84.5201 17.525 83.9319 17.4522C83.2081 17.3563 82.7532 17.3895 82.5665 17.5725C82.2844 17.9194 78.6983 17.8961 78.2089 17.5352C77.9855 17.4069 77.8482 17.4459 77.843 17.6321C77.8355 17.9012 77.7901 17.9004 77.3892 17.6239C77.0331 17.369 76.9424 17.3674 76.936 17.595C76.9297 17.8227 76.7935 17.8203 76.2548 17.6034C75.8952 17.4727 75.2163 17.3983 74.7148 17.4721C73.8491 17.5807 73.2213 17.3002 73.01 16.7372C72.9687 16.5916 72.7033 16.3383 72.4345 16.2092C72.0307 16.0362 71.9365 16.1588 72.0582 16.6786C72.1363 17.1356 71.9467 17.4221 71.5365 17.4768C71.1724 17.5116 71.0374 17.4678 71.1764 17.3668C71.3154 17.2657 70.6819 17.1922 69.7731 17.2172C68.456 17.2348 68.275 17.2108 69.0052 17.0791C69.7812 16.9274 69.8277 16.8868 69.1017 16.8737C68.2854 16.8383 67.9793 16.4186 68.7962 16.4334C69.023 16.4375 69.2522 16.3588 69.2546 16.276C69.2574 16.1725 68.9421 16.084 68.5791 16.0774C68.216 16.0709 67.8949 16.1893 67.8903 16.3549C67.8863 16.4998 67.6559 16.6198 67.3836 16.6149C67.1568 16.6108 67.0183 16.6911 67.1969 16.7979C67.5071 17.0727 64.5598 16.9366 64.1583 16.6809C63.9802 16.5534 63.4357 16.5436 62.751 16.6762C62.1116 16.8096 61.4752 16.8395 61.296 16.7535C61.1168 16.6674 59.8485 16.5616 58.4417 16.5362C56.9902 16.4893 55.0406 16.392 54.044 16.3119C53.0474 16.2317 50.9175 16.0897 49.2856 15.9981C47.6543 15.8858 45.2085 15.676 43.8506 15.5272C42.4927 15.3785 41.0888 15.2496 40.7712 15.2438C40.4535 15.2381 40.2755 15.1106 40.4162 14.9475C40.5564 14.8051 40.4691 14.6793 40.2422 14.6752C39.9699 14.6703 39.7861 14.7498 39.7832 14.8532C39.7798 14.9774 39.3696 15.0321 38.871 15.0024C38.3724 14.9727 37.9658 14.9032 37.9681 14.8205C37.9704 14.7377 37.3357 14.7055 36.5625 14.7537C35.5171 14.7969 35.2459 14.7506 35.478 14.5684C35.7095 14.4069 35.6653 14.3647 35.3448 14.4625C34.7502 14.6174 32.9909 14.2129 32.9989 13.9231C33.0024 13.7989 33.3683 13.702 33.7767 13.7094C34.2311 13.6969 33.8704 13.6075 33.0105 13.5092C32.1512 13.3901 30.9748 13.2446 30.3872 13.1512C29.4383 12.9891 29.1137 13.2317 29.3221 13.8981C29.4059 14.1481 28.727 14.0737 27.6925 13.7237C27.0176 13.5045 26.6552 13.4772 26.5604 13.6205C26.4656 13.7637 25.9653 13.7961 25.4684 13.7043C24.8354 13.61 24.6148 13.3782 24.6281 12.9022C24.6437 12.3434 24.3307 12.1721 22.1692 11.5325C20.8183 11.1354 19.5121 10.7598 19.3312 10.7358C18.4736 10.5547 19.7161 9.95587 21.4486 9.69726C22.953 9.47594 25.3145 9.45647 32.5285 9.62819C37.6104 9.74069 41.741 9.77388 41.7433 9.69109C41.7468 9.56691 40.8932 9.24088 40.3958 9.16977C40.2596 9.16731 39.853 9.09785 39.4923 9.0085C39.131 8.93985 38.4985 8.82489 38.1367 8.77694C37.595 8.66362 37.5956 8.64293 38.1855 8.65358C38.5945 8.64026 39.0529 8.48288 39.1954 8.25767C39.5292 7.68389 41.8464 7.62221 51.3265 7.93839C59.5814 8.23244 61.6711 8.18736 60.3661 7.77035C59.9612 7.63879 59.9193 7.51379 60.1944 7.41522C60.6517 7.29923 60.7011 7.15518 60.4898 6.59226C60.4921 6.50947 58.9177 5.98406 57.071 5.45372C54.8642 4.81335 53.7413 4.37892 53.928 4.19592C54.0688 4.03281 54.1647 3.84817 54.1664 3.78608C54.1768 3.41354 57.1357 3.13566 59.9928 3.24939C62.9861 3.36558 65.0787 3.21701 65.5871 2.89487C66.0507 2.55122 70.8224 2.38892 78.1295 2.47948C82.2148 2.51186 85.5291 2.5096 85.5309 2.44751C85.5326 2.38542 87.9394 2.36677 90.8902 2.37865C99.9688 2.43909 106.598 2.41388 107.19 2.34174C107.464 2.28457 107.782 2.29031 107.872 2.33334ZM127.142 4.85569C126.189 4.83847 125.416 4.90733 125.412 5.03151C125.409 5.135 125.543 5.24094 125.723 5.26492C128.805 5.48623 144.185 5.88826 146.821 5.79092C147.23 5.7776 147.504 5.69973 147.371 5.59379C147.238 5.48784 146.921 5.46141 146.692 5.5194C146.463 5.5774 145.556 5.54031 144.698 5.40055C143.522 5.23436 143.113 5.24768 143.108 5.41326C143.104 5.55814 142.879 5.49195 142.612 5.28006C142.302 5.02596 141.94 4.95731 141.619 5.07576C141.299 5.1735 140.253 5.23744 139.256 5.17801C138.258 5.13928 137.212 5.18252 136.983 5.26121C136.433 5.43765 134.212 5.3354 133.718 5.11941C133.225 4.88273 132.588 4.93335 132.944 5.18827C133.344 5.5061 131.31 5.17946 130.413 4.79052C130.01 4.59687 129.648 4.54892 129.326 4.68806C129.051 4.80732 128.095 4.8729 127.142 4.85569ZM134.951 4.87248C134.949 4.93457 135.128 5.04134 135.398 5.10835C135.624 5.17453 135.852 5.13724 135.854 5.03375C135.858 4.90957 135.634 4.80199 135.407 4.79789C135.135 4.79297 134.952 4.83109 134.951 4.87248ZM153.033 6.04809C152.809 5.9612 152.626 5.99932 152.623 6.1235C152.617 6.33047 155.24 6.70916 155.653 6.55096C155.791 6.49133 155.39 6.21489 154.853 5.9153C153.868 5.44193 153.777 5.4403 153.631 5.78969C153.534 5.99502 153.259 6.11428 153.033 6.04809ZM149.535 6.12986C149.841 6.54954 150.794 6.58744 150.851 6.17432C150.856 5.96735 150.994 5.90772 151.126 6.05506C151.213 6.20158 151.482 6.33068 151.709 6.33478C152.208 6.34379 152.679 5.73108 152.368 5.49767C152.057 5.24357 149.362 5.83682 149.535 6.12986ZM122.69 4.96164C122.682 5.25139 123.494 5.45242 124.042 5.31738C124.317 5.23951 124.412 5.09627 124.278 4.99032C123.922 4.7354 122.697 4.71327 122.69 4.96164ZM69.2965 8.26297C69.4734 8.43182 69.6509 8.57998 69.7416 8.58162C69.8324 8.58326 69.9272 8.44002 69.9318 8.27444C69.9364 8.10887 69.7589 7.96071 69.4867 7.95579C69.2598 7.95169 69.165 8.09493 69.2965 8.26297ZM235.853 17.1729C235.848 17.3799 236.022 17.6315 236.293 17.6986C236.563 17.7863 236.75 17.5619 236.761 17.1893C236.771 16.8168 236.596 16.5858 236.322 16.6637C236.048 16.7209 235.859 16.966 235.853 17.1729ZM209.988 16.685C209.985 16.7885 210.299 16.9185 210.615 16.9863C211.067 17.0773 211.205 17.0176 211.029 16.8074C210.765 16.492 209.996 16.3953 209.988 16.685ZM221.327 17.0969C221.318 17.4281 222.45 17.5107 223.048 17.2316C223.555 16.9922 223.42 16.9484 222.467 16.9311C221.831 16.9197 221.33 16.9934 221.327 17.0969ZM216.562 17.0316C216.695 17.1375 217.055 17.2475 217.282 17.2516C217.554 17.2566 217.602 17.1539 217.469 17.048C217.336 16.9213 216.976 16.832 216.749 16.8279C216.477 16.823 216.429 16.9049 216.562 17.0316ZM41.1613 14.2776C41.1584 14.3811 41.3824 14.4887 41.6547 14.4936C41.8816 14.4977 41.9753 14.3959 41.842 14.2899C41.7093 14.1633 41.4848 14.0764 41.3486 14.0739C41.2579 14.0723 41.1648 14.1534 41.1613 14.2776ZM54.7915 15.5592C55.1499 15.7313 56.5572 15.736 56.5624 15.5498C56.5647 15.467 56.3401 15.3801 56.1132 15.376C55.8409 15.3711 55.7065 15.3065 55.7094 15.203C55.9031 14.7717 55.5877 14.6831 55.1235 15.0475C54.7995 15.2694 54.657 15.4946 54.7915 15.5592ZM43.186 14.9354C43.6335 15.1713 44.1728 15.3674 44.4451 15.3723C44.672 15.3764 44.4049 15.1852 43.8214 14.9469C42.4291 14.4041 42.1568 14.3991 43.186 14.9354ZM49.9871 15.2653C49.8481 15.3664 49.8906 15.4707 50.1628 15.4756C50.3897 15.4797 50.7556 15.3828 50.8947 15.2817C51.0343 15.16 50.9912 15.0764 50.7189 15.0715C50.492 15.0674 50.1267 15.1436 49.9871 15.2653ZM60.0542 15.6957C60.1421 15.8008 60.8664 15.876 61.5925 15.8891C62.3639 15.903 62.8654 15.8293 62.6873 15.7018C62.5541 15.5959 61.8298 15.5206 61.1485 15.5291C60.4219 15.5366 59.9204 15.6104 60.0542 15.6957ZM65.491 16.1045C65.6673 16.294 65.939 16.3196 66.5789 16.1655C67.6755 15.9161 67.6761 15.8954 66.3601 15.8717C65.7248 15.8602 65.3589 15.9571 65.491 16.1045ZM73.4294 16.3514C73.5167 16.4772 74.1031 16.612 74.6925 16.6434C75.6443 16.702 75.6902 16.6821 74.9263 16.3991C73.8918 16.0491 73.2117 16.0161 73.4294 16.3514ZM70.161 16.3338C70.1598 16.3752 70.4752 16.4637 70.8359 16.553C71.1972 16.6217 71.516 16.586 71.5189 16.4825C71.5223 16.3584 71.207 16.2698 70.844 16.2633C70.4809 16.2567 70.1621 16.2924 70.161 16.3338ZM78.093 16.8084C77.5031 16.7977 77.3652 16.8573 77.7236 17.0295C78.0373 17.1801 78.6277 17.17 79.7238 16.9413C80.91 16.735 81.0025 16.6745 80.1379 16.7418C79.5015 16.7717 78.5922 16.8174 78.093 16.8084ZM214.705 20.1248C215.292 20.239 215.335 20.3019 214.882 20.2937C214.473 20.307 214.651 20.4345 215.327 20.5916C216.319 20.858 216.501 20.8406 217.01 20.4771C217.474 20.1127 217.431 20.0291 216.572 19.9101C216.029 19.8382 215.167 19.8226 214.712 19.8765C214.105 19.9207 214.103 20.0035 214.705 20.1248ZM91.4595 17.7745C91.4543 17.9608 91.7249 18.0278 92.135 17.9731C92.5004 17.8969 92.6853 17.776 92.5521 17.67C92.1971 17.3737 91.4688 17.4434 91.4595 17.7745ZM232.353 20.5886C232.487 20.6531 232.852 20.5976 233.174 20.4584C233.588 20.2588 233.543 20.2373 232.904 20.35C232.449 20.4039 232.219 20.524 232.353 20.5886ZM223.142 20.4015C223.046 20.5654 223.361 20.6746 223.906 20.6845C224.858 20.7017 225.501 20.4441 225.008 20.2074C224.56 19.9922 223.377 20.1158 223.142 20.4015ZM218.242 20.2716C217.783 20.4289 217.598 20.5705 217.916 20.5763C218.778 20.5918 219.873 20.3839 219.879 20.1769C219.886 19.9078 219.25 19.9377 218.242 20.2716ZM211.072 20.1421C210.931 20.3052 211.018 20.4517 211.245 20.4558C211.517 20.4607 211.703 20.3191 211.707 20.1535C211.712 19.988 211.625 19.8414 211.534 19.8398C211.444 19.8382 211.258 19.9798 211.072 20.1421ZM203.996 19.9107C203.993 20.0142 204.172 20.121 204.444 20.1259C204.671 20.13 204.901 20.0306 204.903 19.9271C204.907 19.8029 204.682 19.716 204.455 19.7119C204.183 19.707 203.999 19.7865 203.996 19.9107ZM235.894 20.6111C236.028 20.6756 236.436 20.7037 236.755 20.6474C237.12 20.5918 236.986 20.5273 236.486 20.5183C235.988 20.4885 235.714 20.5457 235.894 20.6111ZM199.452 20.0357C199.449 20.1392 199.809 20.2492 200.218 20.2566C200.899 20.2689 200.945 20.2283 200.36 20.0521C199.505 19.7882 199.459 19.7874 199.452 20.0357ZM108.671 19.2657C108.66 19.659 108.75 19.6813 109.12 19.4395C109.49 19.1977 109.58 19.1993 109.574 19.427C109.568 19.634 109.795 19.6381 110.71 19.3854C111.351 19.2106 112.125 19.121 112.395 19.2088C112.71 19.2973 112.756 19.2774 112.579 19.1292C112.401 18.9811 111.451 18.8604 110.453 18.8424C108.91 18.8145 108.681 18.8725 108.671 19.2657ZM129.527 20.2637C129.525 20.3465 129.974 20.5202 130.469 20.6741C131.236 20.8743 131.372 20.8561 131.106 20.6442C130.839 20.453 130.975 20.4348 131.472 20.5266C132.465 20.7309 133.46 20.8731 133.009 20.7614C132.83 20.696 132.699 20.5073 132.704 20.321C132.713 20.0106 132.803 20.0122 133.159 20.2878C133.47 20.5212 133.606 20.5444 133.611 20.3374C133.616 20.1719 133.212 19.9989 132.715 19.9278C132.217 19.8567 131.813 19.7044 131.816 19.6009C131.822 19.394 129.579 20.0368 129.527 20.2637ZM128.182 19.6803C127.721 19.9204 127.719 19.9825 128.355 19.994C128.763 20.0014 129.085 19.8622 129.089 19.6967C129.094 19.5311 129.007 19.3846 128.916 19.3829C128.826 19.3813 128.504 19.5204 128.182 19.6803ZM147.037 20.8284C147.388 21.2489 147.978 21.2596 148.943 20.8628C149.632 20.5647 149.587 20.5432 148.721 20.6518C148.175 20.7247 147.631 20.6735 147.453 20.546C147.009 20.2067 146.685 20.4079 147.037 20.8284ZM134.065 20.3456C134.062 20.4491 134.607 20.4589 135.244 20.4083C136.2 20.3221 136.381 20.346 136.103 20.5481C135.871 20.7303 135.915 20.7725 136.281 20.6755C136.555 20.5977 136.696 20.4346 136.563 20.3286C136.252 20.0952 134.072 20.118 134.065 20.3456ZM165.96 21.1495C165.868 21.2099 166.228 21.32 166.77 21.4126C167.402 21.5276 167.903 21.4952 167.998 21.352C168.092 21.2294 168.366 21.1722 168.59 21.2591C168.816 21.3253 168.999 21.2665 169.002 21.1423C169.009 20.9147 166.466 20.9308 165.96 21.1495ZM154.708 20.8841C154.523 21.005 154.205 21.02 153.934 20.953C153.619 20.8645 153.572 20.905 153.75 21.0532C154.017 21.2444 154.244 21.2485 154.702 21.0911C155.023 20.9727 155.659 20.9634 156.065 21.0536C156.653 21.147 156.79 21.1288 156.567 20.9591C156.168 20.6413 155.079 20.6009 154.708 20.8841ZM152.028 20.9393C152.336 21.2762 153.105 21.3936 153.113 21.0831C153.118 20.9175 152.803 20.8083 151.9 20.647C151.855 20.6255 151.896 20.7712 152.028 20.9393ZM150.171 20.7815C150.304 20.8874 150.028 21.0274 149.618 21.0614C149.117 21.1145 149.252 21.1583 150.023 21.193C151.248 21.2358 151.616 21.0561 150.989 20.7548C150.541 20.5397 149.859 20.5688 150.171 20.7815ZM143.679 20.7678C143.767 20.8729 144.489 21.0102 145.351 21.0464C146.937 21.1372 146.809 20.8657 145.18 20.6499C144.004 20.5044 143.503 20.5368 143.679 20.7678ZM139.052 20.6014C139.412 20.7114 140.045 20.8057 140.408 20.8122C140.862 20.8204 140.773 20.7567 140.187 20.6219C138.968 20.3514 138.242 20.3382 139.052 20.6014ZM238.373 24.4868C238.367 24.7144 239.592 24.7572 239.916 24.5353C240.009 24.4542 239.739 24.3458 239.24 24.3368C238.787 24.3079 238.377 24.3626 238.373 24.4868ZM236.561 24.3505C236.557 24.5161 237.416 24.6351 237.647 24.4943C237.786 24.3933 237.607 24.3072 237.244 24.3007C236.881 24.2941 236.562 24.3298 236.561 24.3505ZM222.176 24.0907C222.31 24.1552 222.718 24.1833 223.038 24.1269C223.402 24.0714 223.268 24.0068 222.769 23.9978C222.27 23.9681 221.996 24.0253 222.176 24.0907ZM219.62 24.5829C219.157 24.9058 218.968 25.1509 219.195 25.155C219.558 25.1616 220.672 24.2913 220.68 24.0015C220.684 23.8566 220.638 23.8765 219.62 24.5829ZM13.4225 20.7343C13.5569 20.7988 13.9647 20.8269 14.2841 20.7706C14.6488 20.715 14.5144 20.6505 14.0153 20.6415C13.5167 20.6118 13.2427 20.6689 13.4225 20.7343ZM220.788 25.0181C220.92 25.1862 221.058 25.1265 221.064 24.8989C221.116 24.672 220.983 24.5454 220.844 24.6257C220.707 24.6853 220.656 24.8708 220.788 25.0181ZM204.408 24.6602C203.951 24.7761 204.039 24.8606 204.808 24.9573C205.984 25.1235 206.35 25.0472 205.905 24.7286C205.594 24.4538 205.232 24.4265 204.408 24.6602ZM191.838 24.4538C191.698 24.5755 191.879 24.5995 192.244 24.544C193.065 24.4139 193.205 24.2714 192.57 24.26C192.297 24.255 191.977 24.3321 191.838 24.4538ZM216.11 25.0993C216.107 25.2028 216.195 25.3079 216.285 25.3095C216.421 25.312 216.651 25.2126 216.79 25.1116C216.93 24.9899 216.841 24.9054 216.614 24.9013C216.342 24.8964 216.113 24.9751 216.11 25.0993ZM211.621 24.8733C211.711 24.8956 212.16 25.0694 212.565 25.2216C213.239 25.4823 213.375 25.464 213.383 25.1743C213.389 24.9673 213.03 24.8366 212.394 24.8251C211.85 24.8153 211.531 24.8302 211.621 24.8733ZM207.941 24.9518C207.938 25.0552 208.117 25.162 208.389 25.1669C208.616 25.171 208.846 25.0716 208.849 24.9681C208.852 24.844 208.628 24.7571 208.401 24.753C208.129 24.7481 207.945 24.8276 207.941 24.9518ZM43.8223 24.6794C43.6827 24.8011 43.8636 24.8251 44.2284 24.7696C45.0492 24.6394 45.1894 24.497 44.5541 24.4855C44.2818 24.4806 43.9619 24.5577 43.8223 24.6794ZM36.873 24.7817C36.7305 25.0069 36.8213 25.0085 37.1912 24.7667C37.6525 24.5058 37.6979 24.5066 37.6904 24.7757C37.6846 24.9827 37.8202 25.0058 38.0511 24.8651C38.2361 24.7442 38.6945 24.5868 39.0592 24.5312C39.424 24.4757 39.1529 24.4294 38.4257 24.4577C37.6536 24.4644 36.9684 24.6177 36.873 24.7817ZM65.7998 26.1945C65.7986 26.2359 66.1134 26.3452 66.52 26.4146C66.8814 26.4833 67.0634 26.4659 66.9308 26.3392C66.6643 26.1273 65.8044 26.029 65.7998 26.1945ZM179.85 29.4141C178.176 29.1975 177.806 29.4393 179.157 29.8158C180.149 30.0615 182.062 29.8682 182.618 29.4434C182.895 29.2828 182.76 29.2596 182.166 29.3938C181.708 29.5098 180.709 29.5125 179.85 29.4141ZM176.305 29.5158C176.53 29.6027 176.844 29.7533 176.977 29.8385C177.111 29.9445 177.385 29.8873 177.525 29.7449C177.666 29.5611 177.397 29.4527 176.853 29.4221C176.354 29.3924 176.126 29.4297 176.305 29.5158ZM191.768 30.2092C191.9 30.3565 192.171 30.4236 192.31 30.3225C192.448 30.2422 192.77 30.1031 192.999 30.0244C193.183 29.9449 192.957 29.8994 192.457 29.9111C191.912 29.9219 191.637 30.0205 191.768 30.2092ZM161.45 31.4839C161.445 31.6494 161.669 31.7363 161.898 31.6783C162.173 31.6005 162.268 31.4572 162.134 31.3513C161.734 31.0541 161.46 31.1113 161.45 31.4839ZM170.97 31.9664C170.968 32.0492 171.191 32.1982 171.416 32.2644C171.686 32.3521 171.727 32.4978 171.588 32.6195C171.402 32.7611 171.492 32.7834 171.767 32.7056C172.544 32.5125 172.473 31.8279 171.656 31.8131C171.293 31.8066 170.973 31.8836 170.97 31.9664ZM211.303 34.6621C211.298 34.8277 211.523 34.9146 211.751 34.8566C212.026 34.7787 212.121 34.6355 211.987 34.5295C211.587 34.2324 211.313 34.2896 211.303 34.6621ZM226.706 35.8515C226.111 36.0064 226.11 36.0478 226.791 36.0601C227.199 36.0674 227.701 35.973 227.84 35.8719C228.211 35.6094 227.621 35.5988 226.706 35.8515ZM52.2248 32.7C52.3581 32.8059 52.7182 32.916 52.9451 32.9201C53.2174 32.925 53.2656 32.8223 53.1324 32.7164C52.9997 32.5897 52.639 32.5004 52.4121 32.4963C52.1398 32.4914 52.0921 32.5733 52.2248 32.7ZM230.784 36.1322C230.781 36.2357 231.005 36.3433 231.278 36.3482C231.505 36.3523 231.598 36.2504 231.465 36.1445C231.332 36.0178 231.108 35.931 230.972 35.9285C230.881 35.9269 230.788 36.008 230.784 36.1322ZM232.732 36.2916C232.866 36.3562 233.274 36.3842 233.594 36.3279C233.958 36.2724 233.824 36.2078 233.325 36.1988C232.826 36.1691 232.552 36.2262 232.732 36.2916ZM113.34 35.7917C113.474 35.8563 113.882 35.8844 114.202 35.828C114.566 35.7725 114.432 35.7079 113.933 35.6989C113.434 35.6692 113.16 35.7264 113.34 35.7917ZM109.387 35.9067C109.564 36.0756 109.834 36.1633 110.062 36.1053C110.565 35.9901 110.167 35.6102 109.577 35.5995C109.35 35.5954 109.255 35.7387 109.387 35.9067ZM129.526 36.6018C129.522 36.726 129.703 36.7499 129.977 36.6928C130.388 36.5967 130.608 36.8491 130.507 37.2407C130.459 37.3227 130.865 37.4335 131.317 37.5038C131.814 37.5749 132.133 37.5393 131.999 37.454C131.51 37.0725 132.783 37.0333 133.363 37.3958C134.165 37.928 134.717 37.6688 133.961 37.096C133.651 36.8419 133.11 36.6872 132.7 36.7419C132.29 36.7967 131.566 36.7008 131.117 36.527C130.218 36.2001 129.535 36.2499 129.526 36.6018ZM141.773 37.0094C141.77 37.1128 141.313 37.2081 140.723 37.1975C139.815 37.2018 139.815 37.2225 140.535 37.4219C141.571 37.7305 143.166 37.5108 142.814 37.111C142.551 36.7749 141.781 36.6989 141.773 37.0094ZM136.688 37.0003C136.007 36.988 135.641 37.085 135.821 37.171C136.403 37.4508 139.176 37.3145 139.412 36.9874C139.6 36.763 139.419 36.7391 138.781 36.8518C138.279 36.9255 137.369 36.9919 136.688 37.0003ZM145.849 37.3729C145.847 37.435 146.026 37.5417 146.296 37.6087C146.521 37.6749 146.749 37.6376 146.752 37.5341C146.756 37.41 146.532 37.3024 146.305 37.2983C146.033 37.2934 145.85 37.3315 145.849 37.3729ZM246.574 39.7306C246.572 39.8341 246.888 39.8812 247.253 39.8257C247.618 39.7494 247.938 39.6724 247.939 39.631C247.94 39.5896 247.624 39.5425 247.261 39.5359C246.898 39.5294 246.578 39.6064 246.574 39.7306ZM177.144 38.5179C177.139 38.6835 177.003 38.7018 176.779 38.5735C176.289 38.2333 175.336 38.2161 175.599 38.5522C175.776 38.7417 176.363 38.8352 177.499 38.8143C179.407 38.7659 180.1 38.3229 178.331 38.2909C177.695 38.2794 177.147 38.3938 177.144 38.5179ZM240.298 40.1349C240.432 40.1994 240.707 40.1009 240.849 39.8964C241.13 39.6115 241.085 39.59 240.626 39.7681C240.304 39.9072 240.163 40.0703 240.298 40.1349ZM229.325 39.6261C229.318 39.8745 230.667 40.3337 230.943 40.2144C231.448 40.0165 230.826 39.5083 230.055 39.4943C229.646 39.4869 229.326 39.564 229.325 39.6261ZM198.633 39.6308C198.85 39.9868 199.074 40.1151 199.305 39.9536C199.907 39.5296 201.633 39.5194 201.622 39.9126C201.614 40.2024 201.704 40.2247 202.029 39.9614C202.352 39.7601 202.221 39.5921 201.591 39.3737C200.782 39.1105 200.555 39.1064 199.728 39.4435C199.178 39.6407 198.904 39.6772 199.09 39.5356C199.275 39.4146 199.281 39.187 199.148 39.0603C198.614 38.678 198.332 39.0249 198.633 39.6308ZM190.931 39.0362C191.965 39.4276 192.554 39.4589 192.563 39.1485C192.566 39.045 192.386 38.9796 192.203 39.0384C192.02 39.0765 191.567 39.0476 191.207 38.9169C190.172 38.6083 189.988 38.6878 190.931 39.0362ZM242.479 40.0708C242.476 40.1742 242.792 40.2214 243.157 40.1658C243.523 40.0896 243.842 40.0126 243.844 39.9712C243.845 39.9298 243.528 39.8826 243.165 39.8761C242.802 39.8695 242.482 39.9466 242.479 40.0708ZM235.357 39.8593C235.491 39.9238 235.899 39.9519 236.218 39.8956C236.583 39.84 236.449 39.7755 235.949 39.7665C235.451 39.7367 235.177 39.7939 235.357 39.8593ZM232.495 39.8904C231.992 40.0263 231.991 40.0884 232.399 40.0958C232.717 40.1015 232.85 40.2074 232.665 40.3283C232.525 40.4501 232.89 40.3945 233.576 40.2206C234.217 40.0251 234.767 39.8486 234.768 39.8072C234.773 39.6417 233.181 39.7165 232.495 39.8904ZM227.504 39.8003C227.501 39.9038 227.817 39.9509 228.182 39.8954C228.548 39.8191 228.868 39.7421 228.869 39.7007C228.87 39.6593 228.553 39.6122 228.19 39.6056C227.827 39.599 227.507 39.6761 227.504 39.8003ZM210.256 39.613C210.255 39.6544 210.572 39.7015 210.935 39.7081C211.298 39.7146 211.618 39.6376 211.621 39.5134C211.624 39.4099 211.308 39.3628 210.943 39.4183C210.578 39.4946 210.258 39.5716 210.256 39.613ZM206.309 39.5417C206.443 39.6062 206.851 39.6343 207.17 39.578C207.535 39.5224 207.4 39.4579 206.901 39.4489C206.403 39.4191 206.129 39.4763 206.309 39.5417Z" fill="#5916D8"/>
</g>
</svg>
