<svg width="64" height="64" viewBox="0 0 64 64" fill="none" xmlns="http://www.w3.org/2000/svg">
<rect width="64" height="64" rx="32" fill="#27313F"/>
<path fill-rule="evenodd" clip-rule="evenodd" d="M32 24C27.5817 24 24 27.5817 24 32C24 33.6921 24.5242 35.2588 25.4192 36.5503C25.7153 36.9778 25.7867 37.5484 25.5521 38.0532L24.6473 40H32C36.4183 40 40 36.4183 40 32C40 27.5817 36.4183 24 32 24ZM22 32C22 26.4772 26.4772 22 32 22C37.5228 22 42 26.4772 42 32C42 37.5228 37.5228 42 32 42H23.8616C22.7274 42 22.0099 40.7933 22.5341 39.8016L23.6218 37.4613C22.5962 35.8909 22 34.0137 22 32Z" fill="#F6F8FB"/>
<path fill-rule="evenodd" clip-rule="evenodd" d="M28 34C28 33.4477 28.4477 33 29 33H35C35.5523 33 36 33.4477 36 34C36 34.5523 35.5523 35 35 35H29C28.4477 35 28 34.5523 28 34Z" fill="#F6F8FB"/>
<path fill-rule="evenodd" clip-rule="evenodd" d="M28 30C28 29.4477 28.4477 29 29 29H31C31.5523 29 32 29.4477 32 30C32 30.5523 31.5523 31 31 31H29C28.4477 31 28 30.5523 28 30Z" fill="#F6F8FB"/>
</svg>
