<svg width="44" height="44" viewBox="0 0 44 44" fill="none" xmlns="http://www.w3.org/2000/svg">
<path d="M29.1425 12.3973L30.4506 17.3986M15.8656 16.5431L18.1547 21.7418M42.0344 20.9371C43.0923 33.1681 33.3555 41.8506 22.3461 41.9975C11.3367 42.1445 3.83379 35.7204 2.1889 24.4259C0.544009 13.1315 9.89701 2.98468 20.2959 2.07416C30.6947 1.16364 40.9765 8.70609 42.0344 20.9371ZM23.2969 31.285C22.0213 28.2931 23.4634 25.3659 25.9153 24.4856C28.3672 23.6053 30.5923 24.6444 31.9198 27.356C33.2473 30.0676 32.0154 33.3333 29.765 34.3587C27.5146 35.3841 24.5725 34.2768 23.2969 31.285Z" stroke="#B3BEFF" stroke-width="3"/>
</svg>
