<svg width="45" height="71" viewBox="0 0 45 71" fill="none" xmlns="http://www.w3.org/2000/svg">
<path d="M23.5378 2.02153C23.5378 2.02153 2.21978 6.25968 4.09065 22.2939C4.56277 26.3402 6.78915 29.2158 9.82651 31.0739M9.82651 31.0739C18.8252 36.5787 34.9423 33.1523 33.647 24.7778C32.1574 15.1462 13.402 18.4934 9.82651 31.0739ZM9.82651 31.0739C9.24381 33.1241 9.06428 35.4195 9.42832 37.9439C10.4049 44.7161 14.6399 48.8297 19.4886 50.8624M19.4886 50.8624C27.5382 54.2368 37.2794 51.8765 36.6132 46.4248C35.6699 38.7055 21.6258 41.8648 19.4886 50.8624ZM19.4886 50.8624C19.2073 52.0469 19.1323 53.3327 19.3208 54.7081C20.9408 66.5311 36.336 64.8734 36.336 64.8734" stroke="#B3BEFF" stroke-width="3"/>
</svg>
